<svg width="19.000000" height="19.000000" viewBox="0 0 19 19" fill="none" xmlns="http://www.w3.org/2000/svg" xmlns:xlink="http://www.w3.org/1999/xlink">
	<desc>
			Created with Pixso.
	</desc>
	<defs>
		<clipPath id="clip91_37">
			<rect id="svg-gobbler (69) 1" width="19.000000" height="19.000000" fill="white" fill-opacity="0"/>
		</clipPath>
	</defs>
	<rect id="svg-gobbler (69) 1" width="19.000000" height="19.000000" fill="#FFFFFF" fill-opacity="0"/>
	<g clip-path="url(#clip91_37)">
		<path id="Vector" d="M9.5 2.37C7.97 2.37 6.48 2.82 5.21 3.67C3.94 4.52 2.95 5.72 2.36 7.13C1.78 8.54 1.63 10.1 1.92 11.59C2.22 13.09 2.96 14.47 4.04 15.55C5.12 16.63 6.49 17.36 7.99 17.66C9.49 17.96 11.04 17.8 12.45 17.22C13.86 16.64 15.06 15.65 15.91 14.38C16.76 13.11 17.21 11.62 17.21 10.09C17.21 8.04 16.4 6.08 14.95 4.63C13.5 3.19 11.54 2.37 9.5 2.37ZM9.5 16.62C8.2 16.62 6.94 16.24 5.87 15.52C4.79 14.8 3.96 13.78 3.46 12.59C2.97 11.39 2.84 10.08 3.09 8.81C3.34 7.55 3.96 6.38 4.88 5.47C5.79 4.56 6.95 3.93 8.22 3.68C9.49 3.43 10.8 3.56 11.99 4.05C13.19 4.55 14.21 5.39 14.93 6.46C15.64 7.53 16.03 8.8 16.03 10.09C16.02 11.82 15.34 13.48 14.11 14.7C12.89 15.93 11.23 16.62 9.5 16.62ZM10.09 5.7L10.09 10.09C10.09 10.25 10.03 10.4 9.91 10.51L7.72 12.7C7.67 12.76 7.6 12.8 7.53 12.83C7.46 12.86 7.38 12.87 7.3 12.87C7.22 12.87 7.15 12.86 7.08 12.83C7 12.8 6.94 12.76 6.88 12.7C6.83 12.65 6.78 12.58 6.75 12.51C6.72 12.44 6.71 12.36 6.71 12.28C6.71 12.2 6.72 12.13 6.75 12.05C6.78 11.98 6.83 11.92 6.88 11.86L8.9 9.84L8.9 5.7C8.9 5.55 8.96 5.39 9.08 5.28C9.19 5.17 9.34 5.11 9.5 5.11C9.65 5.11 9.8 5.17 9.91 5.28C10.03 5.39 10.09 5.55 10.09 5.7ZM17.67 5.12C17.57 5.25 17.42 5.32 17.27 5.34C17.11 5.35 16.95 5.3 16.83 5.2L13.27 2.23C13.15 2.13 13.08 1.99 13.07 1.83C13.06 1.68 13.11 1.52 13.21 1.41C13.31 1.29 13.45 1.21 13.6 1.19C13.76 1.18 13.91 1.22 14.03 1.32L17.59 4.29C17.71 4.39 17.79 4.53 17.8 4.69C17.82 4.85 17.77 5 17.67 5.12ZM1.78 5.34C1.65 5.34 1.54 5.3 1.44 5.23C1.34 5.16 1.26 5.06 1.22 4.95C1.18 4.83 1.17 4.71 1.2 4.59C1.24 4.47 1.3 4.37 1.4 4.29L4.96 1.32C5.08 1.22 5.23 1.18 5.39 1.19C5.54 1.21 5.68 1.29 5.78 1.41C5.88 1.52 5.93 1.68 5.92 1.83C5.91 1.99 5.84 2.13 5.72 2.23L2.16 5.2C2.05 5.29 1.92 5.34 1.78 5.34Z" fill="#43AAFF" fill-opacity="1.000000" fill-rule="nonzero"/>
	</g>
</svg>
