<svg width="27.773682" height="28.000000" viewBox="0 0 27.7737 28" fill="none" xmlns="http://www.w3.org/2000/svg" xmlns:xlink="http://www.w3.org/1999/xlink">
	<desc>
			Created with Pixso.
	</desc>
	<defs/>
	<path id="Vector" d="M13.2 0.01C5.81 0.36 -0.03 6.52 6.1e-5 13.92C0 16.18 0.55 18.31 1.51 20.19L0.03 27.35C-0.05 27.73 0.3 28.07 0.69 27.98L7.7 26.32C9.5 27.22 11.52 27.73 13.67 27.77C21.22 27.88 27.53 21.88 27.76 14.33C28.01 6.23 21.33 -0.38 13.2 0.01ZM21.57 21.57C19.52 23.62 16.79 24.76 13.88 24.76C12.18 24.76 10.55 24.37 9.04 23.62L8.07 23.13L3.77 24.15L4.67 19.76L4.19 18.82C3.41 17.28 3.01 15.62 3.01 13.88C3.01 10.98 4.14 8.25 6.19 6.19C8.23 4.16 11 3.01 13.88 3.01C16.79 3.01 19.52 4.14 21.57 6.19C23.62 8.25 24.76 10.98 24.76 13.88C24.76 16.76 23.61 19.54 21.57 21.57Z" fill="#FFFFFF" fill-opacity="1.000000" fill-rule="nonzero"/>
	<path id="Vector" d="M20.62 16.89L17.93 16.12C17.58 16.02 17.2 16.12 16.94 16.38L16.28 17.05C16 17.34 15.58 17.43 15.22 17.28C13.94 16.76 11.27 14.38 10.58 13.19C10.39 12.85 10.42 12.42 10.66 12.11L11.24 11.36C11.46 11.07 11.51 10.68 11.36 10.35L10.23 7.79C9.96 7.17 9.17 6.99 8.66 7.43C7.91 8.06 7.02 9.03 6.91 10.1C6.72 11.98 7.53 14.36 10.59 17.21C14.12 20.5 16.94 20.94 18.78 20.49C19.83 20.24 20.66 19.23 21.19 18.4C21.55 17.83 21.27 17.08 20.62 16.89Z" fill="#FFFFFF" fill-opacity="1.000000" fill-rule="nonzero"/>
</svg>
